<?xml version="1.0" encoding="UTF-8"?>
<!DOCTYPE svg PUBLIC "-//W3C//DTD SVG 1.1//EN" "http://www.w3.org/Graphics/SVG/1.1/DTD/svg11.dtd">
<svg xmlns="http://www.w3.org/2000/svg" version="1.1" width="225px" height="225px" style="shape-rendering:geometricPrecision; text-rendering:geometricPrecision; image-rendering:optimizeQuality; fill-rule:evenodd; clip-rule:evenodd" xmlns:xlink="http://www.w3.org/1999/xlink">
<g><path style="opacity:1" fill="#fdfdfd" d="M -0.5,-0.5 C 74.5,-0.5 149.5,-0.5 224.5,-0.5C 224.5,74.5 224.5,149.5 224.5,224.5C 149.5,224.5 74.5,224.5 -0.5,224.5C -0.5,149.5 -0.5,74.5 -0.5,-0.5 Z"/></g>
<g><path style="opacity:1" fill="#b3d5ef" d="M 148.5,19.5 C 154.946,20.78 159.446,24.4467 162,30.5C 163.42,40.0862 163.92,49.7529 163.5,59.5C 149.484,59.8326 135.484,59.4992 121.5,58.5C 130.756,45.6453 139.756,32.6453 148.5,19.5 Z"/></g>
<g><path style="opacity:1" fill="#022b5d" d="M 98.5,58.5 C 98.1667,58.5 97.8333,58.5 97.5,58.5C 86.8333,58.5 76.1667,58.5 65.5,58.5C 65.8257,50.3159 65.4924,42.3159 64.5,34.5C 66.1434,27.3517 70.4767,22.5183 77.5,20C 93.5,19.3333 109.5,19.3333 125.5,20C 116.613,32.9499 107.613,45.7832 98.5,58.5 Z"/></g>
<g><path style="opacity:1" fill="#00074b" d="M 64.5,34.5 C 65.4924,42.3159 65.8257,50.3159 65.5,58.5C 76.1667,58.5 86.8333,58.5 97.5,58.5C 97.5,58.8333 97.5,59.1667 97.5,59.5C 86.5,59.5 75.5,59.5 64.5,59.5C 64.5,51.1667 64.5,42.8333 64.5,34.5 Z"/></g>
<g><path style="opacity:1" fill="#8a888d" d="M 97.5,58.5 C 97.8333,58.5 98.1667,58.5 98.5,58.5C 105.655,59.3288 112.989,59.8288 120.5,60C 115.788,65.9331 111.455,72.0998 107.5,78.5C 107.5,79.1667 107.167,79.5 106.5,79.5C 99.3524,78.5084 92.0191,78.175 84.5,78.5C 89.0804,72.3402 93.4138,66.0069 97.5,59.5C 97.5,59.1667 97.5,58.8333 97.5,58.5 Z"/></g>
<g><path style="opacity:1" fill="#949297" d="M 64.5,67.5 C 66.8333,67.5 69.1667,67.5 71.5,67.5C 71.5,68.5 71.5,69.5 71.5,70.5C 69.1667,70.5 66.8333,70.5 64.5,70.5C 64.5,69.5 64.5,68.5 64.5,67.5 Z"/></g>
<g><path style="opacity:1" fill="#939196" d="M 133.5,67.5 C 135.833,67.5 138.167,67.5 140.5,67.5C 140.5,68.5 140.5,69.5 140.5,70.5C 138.167,70.5 135.833,70.5 133.5,70.5C 133.5,69.5 133.5,68.5 133.5,67.5 Z"/></g>
<g><path style="opacity:1" fill="#9c9a9e" d="M 78.5,67.5 C 81.1667,67.5 83.8333,67.5 86.5,67.5C 86.5,68.5 86.5,69.5 86.5,70.5C 83.8333,70.5 81.1667,70.5 78.5,70.5C 78.5,69.5 78.5,68.5 78.5,67.5 Z"/></g>
<g><path style="opacity:1" fill="#9a999d" d="M 118.5,67.5 C 121.167,67.5 123.833,67.5 126.5,67.5C 126.5,68.5 126.5,69.5 126.5,70.5C 123.833,70.5 121.167,70.5 118.5,70.5C 118.5,69.5 118.5,68.5 118.5,67.5 Z"/></g>
<g><path style="opacity:1" fill="#9b999e" d="M 147.5,67.5 C 150.167,67.5 152.833,67.5 155.5,67.5C 155.5,68.5 155.5,69.5 155.5,70.5C 152.833,70.5 150.167,70.5 147.5,70.5C 147.5,69.5 147.5,68.5 147.5,67.5 Z"/></g>
<g><path style="opacity:1" fill="#b4d5ef" d="M 84.5,78.5 C 77.9303,87.2957 71.597,96.2957 65.5,105.5C 64.5018,96.5246 64.1685,87.5246 64.5,78.5C 71.1667,78.5 77.8333,78.5 84.5,78.5 Z"/></g>
<g><path style="opacity:1" fill="#002b5c" d="M 107.5,78.5 C 126.167,78.5 144.833,78.5 163.5,78.5C 163.891,88.233 163.391,97.8997 162,107.5C 159.411,113.596 154.911,117.263 148.5,118.5C 126.167,117.833 103.833,117.167 81.5,116.5C 89.5757,104.023 97.909,91.6892 106.5,79.5C 107.167,79.5 107.5,79.1667 107.5,78.5 Z"/></g>
<g><path style="opacity:1" fill="#000144" d="M 81.5,116.5 C 103.833,117.167 126.167,117.833 148.5,118.5C 125.498,118.667 102.498,118.5 79.5,118C 80.0442,117.283 80.7109,116.783 81.5,116.5 Z"/></g>
<g><path style="opacity:1" fill="#142558" d="M 178.5,133.5 C 179.873,133.343 181.207,133.51 182.5,134C 180.983,135.685 179.316,137.185 177.5,138.5C 176.799,136.808 177.133,135.142 178.5,133.5 Z"/></g>
<g><path style="opacity:1" fill="#808fa8" d="M 115.5,141.5 C 119.97,140.514 124.637,140.181 129.5,140.5C 129.737,141.791 129.404,142.791 128.5,143.5C 124.627,141.57 120.294,140.903 115.5,141.5 Z"/></g>
<g><path style="opacity:1" fill="#b1b4c4" d="M 78.5,141.5 C 79.5676,140.566 80.901,140.232 82.5,140.5C 82.8261,149.017 82.4927,157.35 81.5,165.5C 82.1335,157.097 81.4668,149.097 79.5,141.5C 79.1667,141.5 78.8333,141.5 78.5,141.5 Z"/></g>
<g><path style="opacity:1" fill="#13275c" d="M 95.5,140.5 C 99.6938,140.177 103.527,141.177 107,143.5C 107.483,144.448 107.649,145.448 107.5,146.5C 104.841,145.515 102.174,144.515 99.5,143.5C 96.4647,143.434 94.2981,144.767 93,147.5C 92.3333,151.5 92.3333,155.5 93,159.5C 94.5382,161.875 96.7049,163.208 99.5,163.5C 102.617,162.579 105.617,161.745 108.5,161C 105.31,165.4 100.976,167.067 95.5,166C 90.6372,163.111 88.6372,158.778 89.5,153C 88.7237,147.388 90.7237,143.222 95.5,140.5 Z"/></g>
<g><path style="opacity:1" fill="#0b2259" d="M 175.5,140.5 C 180.327,140.155 184.161,141.822 187,145.5C 187.667,150.833 187.667,156.167 187,161.5C 183.127,166.342 178.294,167.508 172.5,165C 170.951,163.786 169.785,162.286 169,160.5C 168.333,155.5 168.333,150.5 169,145.5C 170.805,143.174 172.972,141.508 175.5,140.5 Z"/></g>
<g><path style="opacity:1" fill="#4d6481" d="M 212.5,141.5 C 213.209,140.596 214.209,140.263 215.5,140.5C 215.826,149.017 215.493,157.35 214.5,165.5C 215.134,157.097 214.467,149.097 212.5,141.5 Z"/></g>
<g><path style="opacity:1" fill="#12275c" d="M 15.5,140.5 C 18.941,140.301 22.2744,140.801 25.5,142C 27.0368,143.11 27.7035,144.61 27.5,146.5C 24.8408,145.515 22.1741,144.515 19.5,143.5C 14.247,144.644 11.9136,147.977 12.5,153.5C 13.365,163.902 18.1984,166.235 27,160.5C 27.5,160.833 28,161.167 28.5,161.5C 25.2427,165.864 20.9094,167.364 15.5,166C 13.3333,165.167 11.8333,163.667 11,161.5C 10.3333,156.167 10.3333,150.833 11,145.5C 12.025,143.313 13.525,141.646 15.5,140.5 Z"/></g>
<g><path style="opacity:1" fill="#001652" d="M 79.5,141.5 C 81.4668,149.097 82.1335,157.097 81.5,165.5C 80.209,165.737 79.209,165.404 78.5,164.5C 79.821,161.402 80.4877,157.902 80.5,154C 80.4351,149.784 80.1017,145.617 79.5,141.5 Z"/></g>
<g><path style="opacity:1" fill="#001e59" d="M 157.5,141.5 C 158.5,141.5 159.5,141.5 160.5,141.5C 160.5,149.5 160.5,157.5 160.5,165.5C 159.5,165.5 158.5,165.5 157.5,165.5C 157.5,157.5 157.5,149.5 157.5,141.5 Z"/></g>
<g><path style="opacity:1" fill="#0d2355" d="M 78.5,141.5 C 78.8333,141.5 79.1667,141.5 79.5,141.5C 80.1017,145.617 80.4351,149.784 80.5,154C 80.4877,157.902 79.821,161.402 78.5,164.5C 74.1092,158.741 69.9426,152.741 66,146.5C 65.5005,152.825 65.3338,159.158 65.5,165.5C 64.5,165.5 63.5,165.5 62.5,165.5C 62.5,157.5 62.5,149.5 62.5,141.5C 64.1439,141.286 65.6439,141.62 67,142.5C 70.6667,148.167 74.3333,153.833 78,159.5C 78.4995,153.509 78.6662,147.509 78.5,141.5 Z"/></g>
<g><path style="opacity:1" fill="#f8f9fa" d="M 175.5,143.5 C 178.97,142.875 181.804,143.875 184,146.5C 184.667,151.167 184.667,155.833 184,160.5C 179.522,164.731 175.522,164.398 172,159.5C 171.333,155.167 171.333,150.833 172,146.5C 173.145,145.364 174.312,144.364 175.5,143.5 Z"/></g>
<g><path style="opacity:1" fill="#7d8499" d="M 199.5,141.5 C 198.5,141.5 197.5,141.5 196.5,141.5C 195.866,149.903 196.533,157.903 198.5,165.5C 197.791,166.404 196.791,166.737 195.5,166.5C 195.5,157.833 195.5,149.167 195.5,140.5C 197.099,140.232 198.432,140.566 199.5,141.5 Z"/></g>
<g><path style="opacity:1" fill="#0a2259" d="M 115.5,141.5 C 120.294,140.903 124.627,141.57 128.5,143.5C 125.167,143.5 121.833,143.5 118.5,143.5C 118.5,146.167 118.5,148.833 118.5,151.5C 121.713,151.19 124.713,151.523 127.5,152.5C 124.609,153.403 121.609,153.736 118.5,153.5C 118.5,156.833 118.5,160.167 118.5,163.5C 121.833,163.5 125.167,163.5 128.5,163.5C 124.627,165.43 120.294,166.097 115.5,165.5C 115.5,157.5 115.5,149.5 115.5,141.5 Z"/></g>
<g><path style="opacity:1" fill="#0a2259" d="M 199.5,141.5 C 203.416,146.996 207.082,152.663 210.5,158.5C 210.783,159.289 211.283,159.956 212,160.5C 212.5,154.175 212.666,147.842 212.5,141.5C 214.467,149.097 215.134,157.097 214.5,165.5C 213.178,165.67 212.011,165.337 211,164.5C 207.671,159.014 204.171,153.68 200.5,148.5C 200.217,147.711 199.717,147.044 199,146.5C 198.5,152.825 198.334,159.158 198.5,165.5C 196.533,157.903 195.866,149.903 196.5,141.5C 197.5,141.5 198.5,141.5 199.5,141.5 Z"/></g>
<g><path style="opacity:1" fill="#a6aebd" d="M 200.5,148.5 C 199.833,154.167 199.167,159.833 198.5,165.5C 198.334,159.158 198.5,152.825 199,146.5C 199.717,147.044 200.217,147.711 200.5,148.5 Z"/></g>
<g><path style="opacity:1" fill="#b1b3c4" d="M 212.5,141.5 C 212.666,147.842 212.5,154.175 212,160.5C 211.283,159.956 210.783,159.289 210.5,158.5C 211.167,152.833 211.833,147.167 212.5,141.5 Z"/></g>
<g><path style="opacity:1" fill="#a0a9b8" d="M 127.5,152.5 C 125.365,154.369 122.698,155.036 119.5,154.5C 119.5,157.167 119.5,159.833 119.5,162.5C 122.713,162.19 125.713,162.523 128.5,163.5C 125.167,163.5 121.833,163.5 118.5,163.5C 118.5,160.167 118.5,156.833 118.5,153.5C 121.609,153.736 124.609,153.403 127.5,152.5 Z"/></g>
<g><path style="opacity:1" fill="#0c2358" d="M 40.5,140.5 C 46.4476,139.528 50.9476,141.528 54,146.5C 54.6667,151.167 54.6667,155.833 54,160.5C 50.9446,165.635 46.4446,167.468 40.5,166C 38.4299,165.052 36.9299,163.552 36,161.5C 35.3333,156.167 35.3333,150.833 36,145.5C 37.1932,143.503 38.6932,141.836 40.5,140.5 Z"/></g>
<g><path style="opacity:1" fill="#f8f9f9" d="M 41.5,143.5 C 45.6838,142.704 48.8504,144.037 51,147.5C 51.6667,151.5 51.6667,155.5 51,159.5C 47.399,164.321 43.399,164.654 39,160.5C 38.3333,155.833 38.3333,151.167 39,146.5C 40.045,145.627 40.8783,144.627 41.5,143.5 Z"/></g>
<g><path style="opacity:1" fill="#15275d" d="M 140.5,140.5 C 143.829,140.264 146.829,141.097 149.5,143C 148.975,143.692 148.308,144.192 147.5,144.5C 144.386,142.938 141.553,143.271 139,145.5C 139.34,149.842 141.84,152.342 146.5,153C 150.074,156.524 150.407,160.358 147.5,164.5C 143.117,167.43 139.117,167.096 135.5,163.5C 135.808,162.692 136.308,162.025 137,161.5C 143.374,165.325 146.374,163.658 146,156.5C 143.602,155.144 141.102,153.977 138.5,153C 134.078,147.952 134.744,143.786 140.5,140.5 Z"/></g>
<g><path style="opacity:1" fill="#a1a8b8" d="M 13.5,173.5 C 13.5,183.167 13.5,192.833 13.5,202.5C 14.5,202.5 15.5,202.5 16.5,202.5C 15.4324,203.434 14.099,203.768 12.5,203.5C 12.1726,193.319 12.506,183.319 13.5,173.5 Z"/></g>
<g><path style="opacity:1" fill="#031953" d="M 129.5,171.5 C 130.5,171.5 131.5,171.5 132.5,171.5C 132.334,180.839 132.5,190.173 133,199.5C 134.188,200.563 134.688,201.897 134.5,203.5C 132.61,203.703 131.11,203.037 130,201.5C 129.5,191.506 129.334,181.506 129.5,171.5 Z"/></g>
<g><path style="opacity:1" fill="#7c8496" d="M 156.5,182.5 C 155.509,189.313 155.175,196.313 155.5,203.5C 153.901,203.768 152.568,203.434 151.5,202.5C 152.5,202.5 153.5,202.5 154.5,202.5C 154.334,195.159 154.5,187.826 155,180.5C 155.717,181.044 156.217,181.711 156.5,182.5 Z"/></g>
<g><path style="opacity:1" fill="#001651" d="M 210.5,184.5 C 211.401,182.273 213.067,181.273 215.5,181.5C 215.5,182.5 215.5,183.5 215.5,184.5C 213.833,184.5 212.167,184.5 210.5,184.5 Z"/></g>
<g><path style="opacity:1" fill="#172b5f" d="M 61.5,176.5 C 62.5,176.5 63.5,176.5 64.5,176.5C 64.5,178.167 64.5,179.833 64.5,181.5C 66.8333,181.5 69.1667,181.5 71.5,181.5C 71.5,182.5 71.5,183.5 71.5,184.5C 69.1667,184.5 66.8333,184.5 64.5,184.5C 64.3342,189.179 64.5008,193.845 65,198.5C 66.8647,200.673 69.0314,201.007 71.5,199.5C 72.731,200.651 72.731,201.817 71.5,203C 65.9579,204.892 62.4579,203.059 61,197.5C 60.8345,192.007 60.0012,186.673 58.5,181.5C 59.5,181.5 60.5,181.5 61.5,181.5C 61.5,179.833 61.5,178.167 61.5,176.5 Z"/></g>
<g><path style="opacity:1" fill="#0d265b" d="M 189.5,191.5 C 191.857,191.337 194.19,191.503 196.5,192C 195.944,192.383 195.611,192.883 195.5,193.5C 190.017,192.807 188.017,194.974 189.5,200C 191.929,200.703 194.262,200.537 196.5,199.5C 196.959,196.51 197.959,193.677 199.5,191C 198.186,190.015 197.186,188.848 196.5,187.5C 196.586,186.504 196.252,185.671 195.5,185C 192.901,184.231 190.401,184.398 188,185.5C 187.308,184.975 186.808,184.308 186.5,183.5C 190.633,180.867 194.8,180.867 199,183.5C 200.123,189.775 200.956,196.109 201.5,202.5C 199.218,203.9 197.718,203.234 197,200.5C 193.61,204.032 189.943,204.366 186,201.5C 183.256,196.667 184.423,193.334 189.5,191.5 Z"/></g>
<g><path style="opacity:1" fill="#09295c" d="M 210.5,184.5 C 210.5,190.5 210.5,196.5 210.5,202.5C 209.5,202.5 208.5,202.5 207.5,202.5C 207.822,196.642 207.489,190.975 206.5,185.5C 206.694,180.597 208.027,180.264 210.5,184.5 Z"/></g>
<g><path style="opacity:1" fill="#062258" d="M 178.5,202.5 C 177.5,202.5 176.5,202.5 175.5,202.5C 175.666,195.159 175.5,187.826 175,180.5C 174.283,181.044 173.783,181.711 173.5,182.5C 171.639,187.579 168.805,191.913 165,195.5C 161.24,191.881 158.407,187.548 156.5,182.5C 156.217,181.711 155.717,181.044 155,180.5C 154.5,187.826 154.334,195.159 154.5,202.5C 153.5,202.5 152.5,202.5 151.5,202.5C 151.5,192.833 151.5,183.167 151.5,173.5C 152.978,173.238 154.311,173.571 155.5,174.5C 158.667,180.167 161.833,185.833 165,191.5C 168.167,185.833 171.333,180.167 174.5,174.5C 175.689,173.571 177.022,173.238 178.5,173.5C 178.5,183.167 178.5,192.833 178.5,202.5 Z"/></g>
<g><path style="opacity:1" fill="#a4acb9" d="M 178.5,202.5 C 177.432,203.434 176.099,203.768 174.5,203.5C 174.825,196.313 174.491,189.313 173.5,182.5C 173.783,181.711 174.283,181.044 175,180.5C 175.5,187.826 175.666,195.159 175.5,202.5C 176.5,202.5 177.5,202.5 178.5,202.5 Z"/></g>
<g><path style="opacity:1" fill="#68768d" d="M 206.5,185.5 C 207.489,190.975 207.822,196.642 207.5,202.5C 208.5,202.5 209.5,202.5 210.5,202.5C 209.432,203.434 208.099,203.768 206.5,203.5C 206.5,197.5 206.5,191.5 206.5,185.5 Z"/></g>
<g><path style="opacity:1" fill="#08245a" d="M 13.5,173.5 C 19.0236,172.898 24.1902,173.898 29,176.5C 32.6386,184.107 30.472,188.941 22.5,191C 24.5977,193.854 26.931,196.521 29.5,199C 30.448,199.483 31.448,199.649 32.5,199.5C 32.5,200.833 32.5,202.167 32.5,203.5C 30.6916,203.509 29.0249,203.009 27.5,202C 24.3242,197.994 20.9908,194.16 17.5,190.5C 16.5091,194.445 16.1758,198.445 16.5,202.5C 15.5,202.5 14.5,202.5 13.5,202.5C 13.5,192.833 13.5,183.167 13.5,173.5 Z"/></g>
<g><path style="opacity:1" fill="#f0f2f4" d="M 16.5,176.5 C 19.6074,176.351 22.6074,176.851 25.5,178C 28.39,181.419 28.0567,184.419 24.5,187C 21.854,187.497 19.1873,187.664 16.5,187.5C 16.5,183.833 16.5,180.167 16.5,176.5 Z"/></g>
<g><path style="opacity:1" fill="#0b2258" d="M 110.5,181.5 C 113.518,181.335 116.518,181.502 119.5,182C 120.333,182.833 121.167,183.667 122,184.5C 122.293,190.867 122.793,197.2 123.5,203.5C 121.408,203.439 119.908,202.439 119,200.5C 115.685,204.105 112.018,204.439 108,201.5C 105.665,197.845 106.165,194.679 109.5,192C 112.5,191.667 115.5,191.333 118.5,191C 119.935,188.733 119.602,186.733 117.5,185C 114.901,184.231 112.401,184.398 110,185.5C 108.07,183.923 108.237,182.59 110.5,181.5 Z"/></g>
<g><path style="opacity:1" fill="#e7e9ed" d="M 118.5,192.5 C 120.865,199.089 118.532,201.589 111.5,200C 110.446,198.612 110.28,197.112 111,195.5C 113.48,194.188 115.98,193.188 118.5,192.5 Z"/></g>
<g><path style="opacity:1" fill="#eef0f3" d="M 195.5,193.5 C 196.461,195.265 196.795,197.265 196.5,199.5C 194.262,200.537 191.929,200.703 189.5,200C 188.017,194.974 190.017,192.807 195.5,193.5 Z"/></g>
<g><path style="opacity:1" fill="#5b698b" d="M 196.5,187.5 C 197.186,188.848 198.186,190.015 199.5,191C 197.959,193.677 196.959,196.51 196.5,199.5C 196.795,197.265 196.461,195.265 195.5,193.5C 195.611,192.883 195.944,192.383 196.5,192C 194.19,191.503 191.857,191.337 189.5,191.5C 191.607,190.532 193.941,190.198 196.5,190.5C 196.5,189.5 196.5,188.5 196.5,187.5 Z"/></g>
<g><path style="opacity:1" fill="#162c5f" d="M 78.5,181.5 C 88.9096,179.41 93.2429,183.577 91.5,194C 91.625,197.355 91.125,200.522 90,203.5C 89.0853,202.672 88.4186,201.672 88,200.5C 84,204.5 80,204.5 76,200.5C 75.2034,192.971 78.7034,189.805 86.5,191C 87.8333,189 87.8333,187 86.5,185C 83.9009,184.231 81.4009,184.398 79,185.5C 77.2317,184.318 77.0651,182.985 78.5,181.5 Z"/></g>
<g><path style="opacity:1" fill="#eaecef" d="M 81.5,193.5 C 83.5,193.5 85.5,193.5 87.5,193.5C 88.8271,199.674 86.4938,201.841 80.5,200C 78.1155,197.55 78.4488,195.383 81.5,193.5 Z"/></g>
<g><path style="opacity:1" fill="#0b2359" d="M 37.5,181.5 C 38.5,181.5 39.5,181.5 40.5,181.5C 40.3341,186.511 40.5007,191.511 41,196.5C 42.7474,200.421 45.5808,201.421 49.5,199.5C 50.4959,193.537 50.8293,187.537 50.5,181.5C 51.5,181.5 52.5,181.5 53.5,181.5C 53.2743,188.876 53.6076,196.209 54.5,203.5C 52.4078,203.439 50.9078,202.439 50,200.5C 46.7285,204.096 43.0618,204.429 39,201.5C 37.6226,194.924 37.1226,188.257 37.5,181.5 Z"/></g>
</svg>
